<svg width="152" height="114" viewBox="0 0 152 114" fill="none" xmlns="http://www.w3.org/2000/svg">
<rect width="152" height="114" fill="black"/>
<path d="M32.2555 37.3628L39.24 37.4047L51.6757 50.0387L64.2698 37.5549L71.2544 37.5968L71.0371 72.0348L64.0525 71.9928L64.2088 47.2275L51.6179 59.2046L39.179 47.0773L39.0227 71.8427L32.0382 71.8007L32.2555 37.3628ZM91.3982 43.8431L78.685 43.7669L78.7237 37.6416L111.135 37.8361L111.096 43.9613L98.3828 43.8851L98.2041 72.1978L91.2196 72.1559L91.3982 43.8431Z" fill="white"/>
<path d="M31.9976 29V18.606H32.5261V29H31.9976ZM33.0546 29V18.606H34.6401V29H33.0546ZM35.1686 29V18.606H36.2256V29H35.1686ZM33.5302 30.5327H33.9002L34.9043 32.541L35.9261 30.5327H36.2785V34.6198H35.838V31.5368L34.9572 33.1928H34.781L33.953 31.5545V34.6198H33.5302V30.5327ZM37.8125 29V18.606H38.341V29H37.8125ZM39.9265 29V18.606H41.5121V29H39.9265ZM42.0406 29V18.606H43.0976V29H42.0406ZM40.7193 34.6903C40.2495 34.6903 39.8913 34.5082 39.6447 34.1441C39.3863 33.7801 39.2571 33.2633 39.2571 32.5938C39.2571 31.9479 39.3863 31.437 39.6447 31.0612C39.903 30.6971 40.2613 30.5151 40.7193 30.5151C41.1773 30.5151 41.5355 30.6971 41.7939 31.0612C42.0523 31.437 42.1815 31.9479 42.1815 32.5938C42.1815 33.2633 42.0523 33.7801 41.7939 34.1441C41.5473 34.5082 41.1891 34.6903 40.7193 34.6903ZM40.7193 34.2851C41.0364 34.2851 41.2772 34.1441 41.4416 33.8623C41.6178 33.5686 41.7058 33.1458 41.7058 32.5938C41.7058 32.0771 41.6178 31.666 41.4416 31.3607C41.2654 31.067 41.0247 30.9202 40.7193 30.9202C40.4139 30.9202 40.1732 31.067 39.997 31.3607C39.8208 31.666 39.7328 32.0771 39.7328 32.5938C39.7328 33.1458 39.815 33.5686 39.9794 33.8623C40.1556 34.1441 40.4022 34.2851 40.7193 34.2851ZM43.6275 29V18.606H44.156V29H43.6275ZM44.6845 29V18.606H46.27V29H44.6845ZM47.8555 29V18.606H48.9125V29H47.8555ZM45.2306 30.5327H45.671L47.3799 33.5628V30.5327H47.8908V30.5855C47.8555 30.609 47.8379 30.6384 47.8379 30.6736C47.8262 30.6971 47.8203 30.7499 47.8203 30.8322V34.6198H47.4679L45.6534 31.4135V34.6198H45.2306V30.5327ZM49.4424 29V18.606H49.9709V29H49.4424ZM50.4994 29V18.606H51.0279V29H50.4994ZM52.6135 29V18.606H53.6705V29H52.6135ZM53.001 33.4218H51.6798L51.2746 34.6198H50.8165L52.314 30.4622H52.3668L53.8819 34.6198H53.4062L53.001 33.4218ZM52.8777 33.0695L52.3492 31.5192L51.8031 33.0695H52.8777ZM55.2574 29V18.606H55.7859V29H55.2574ZM57.3714 29V18.606H58.4284V29H57.3714ZM58.9569 29V18.606H60.5424V29H58.9569ZM56.9662 30.5327H57.4947V30.5855C57.4712 30.609 57.4536 30.6384 57.4419 30.6736C57.4419 30.6971 57.4419 30.7499 57.4419 30.8322V34.2322H59.3973V34.6198H56.9662V30.5327ZM61.0723 29V18.606H62.1293V29H61.0723ZM63.7149 29V18.606H64.2434V29H63.7149ZM65.8289 29V18.606H66.3574V29H65.8289ZM62.8692 34.2322H63.6796V30.9202H62.9221V30.5327H64.948V30.9202H64.1377V34.2322H64.9833V34.6198H62.8692V34.2322ZM66.8873 29V18.606H67.9443V29H66.8873ZM68.4728 29V18.606H69.5298V29H68.4728ZM70.5868 29V18.606H71.6438V29H70.5868ZM72.7022 29V18.606H73.7592V29H72.7022ZM74.2877 29V18.606H75.8733V29H74.2877ZM77.4588 29V18.606H77.9873V29H77.4588ZM75.3271 30.9379H74.182V30.5327H77.0007V30.9379H75.8028V34.6198H75.3271V30.9379ZM78.5172 29V18.606H79.5742V29H78.5172ZM81.1597 29V18.606H81.6882V29H81.1597ZM82.2167 29V18.606H83.8022V29H82.2167ZM80.1555 30.5327H81.3535C81.8233 30.5327 82.1639 30.6384 82.3753 30.8498C82.5984 31.0494 82.71 31.3372 82.71 31.713C82.71 31.9479 82.6337 32.171 82.481 32.3824C82.3283 32.5938 82.1286 32.7348 81.882 32.8052L82.8333 34.6198H82.3224L81.4063 32.8229H80.6136V34.6198H80.1555V30.5327ZM81.4063 32.4177C81.6882 32.4177 81.8996 32.3531 82.0406 32.2239C82.1697 32.1064 82.2343 31.9361 82.2343 31.713C82.2343 31.4899 82.1697 31.3078 82.0406 31.1669C81.8996 31.0377 81.6882 30.9731 81.4063 30.9731H80.6136V32.4177H81.4063ZM84.3321 29V18.606H84.8606V29H84.3321ZM85.3891 29V18.606H85.9177V29H85.3891ZM87.5032 29V18.606H88.5602V29H87.5032ZM87.8907 33.4218H86.5695L86.1643 34.6198H85.7062L87.2037 30.4622H87.2565L88.7716 34.6198H88.2959L87.8907 33.4218ZM87.7674 33.0695L87.2389 31.5192L86.6928 33.0695H87.7674ZM90.1471 29V18.606H90.6756V29H90.1471ZM91.2041 29V18.606H92.2611V29H91.2041ZM93.8466 29V18.606H94.3751V29H93.8466ZM91.7678 30.5327H92.7192C93.0597 30.5327 93.324 30.5796 93.5119 30.6736C93.7116 30.7676 93.8819 30.9085 94.0228 31.0964C94.2929 31.4487 94.428 31.9479 94.428 32.5938C94.4045 33.2633 94.2518 33.7683 93.97 34.1089C93.6881 34.4612 93.2477 34.6315 92.6487 34.6198H91.7678V30.5327ZM92.6134 34.2675C93.5178 34.2675 93.97 33.7213 93.97 32.6291C93.97 32.0771 93.8701 31.6543 93.6705 31.3607C93.4591 31.067 93.1302 30.9202 92.6839 30.9202H92.2083V34.2675H92.6134ZM95.962 29V18.606H96.4905V29H95.962ZM98.0761 29V18.606H99.1331V29H98.0761ZM99.6616 29V18.606H100.19V29H99.6616ZM97.618 30.5327H100.12V30.9379H98.0408V32.2767H99.7673V32.6995H98.0408V34.2146H100.102V34.6198H97.618V30.5327ZM101.777 29V18.606H102.834V29H101.777ZM104.42 29V18.606H104.948V29H104.42ZM105.477 29V18.606H107.062V29H105.477ZM103.415 30.5327H104.613C105.083 30.5327 105.424 30.6384 105.635 30.8498C105.858 31.0494 105.97 31.3372 105.97 31.713C105.97 31.9479 105.893 32.171 105.741 32.3824C105.588 32.5938 105.388 32.7348 105.142 32.8052L106.093 34.6198H105.582L104.666 32.8229H103.873V34.6198H103.415V30.5327ZM104.666 32.4177C104.948 32.4177 105.159 32.3531 105.3 32.2239C105.43 32.1064 105.494 31.9361 105.494 31.713C105.494 31.4899 105.43 31.3078 105.3 31.1669C105.159 31.0377 104.948 30.9731 104.666 30.9731H103.873V32.4177H104.666ZM107.592 29V18.606H108.649V29H107.592ZM109.177 29V18.606H110.763V29H109.177ZM111.291 29V18.606H111.82V29H111.291ZM110.481 34.6903C109.953 34.6903 109.524 34.5141 109.195 34.1618L109.442 33.7566L109.459 33.7037L109.512 33.7213C109.512 33.7331 109.518 33.7566 109.53 33.7918C109.53 33.8153 109.542 33.8446 109.565 33.8799C109.577 33.9034 109.6 33.9269 109.636 33.9503C109.882 34.1618 110.187 34.2675 110.552 34.2675C110.786 34.2675 110.986 34.2029 111.151 34.0737C111.315 33.9327 111.397 33.7683 111.397 33.5804C111.397 33.4512 111.368 33.3396 111.309 33.2457C111.262 33.1635 111.174 33.0812 111.045 32.999C110.916 32.9168 110.716 32.817 110.446 32.6995C110.047 32.5469 109.759 32.3707 109.583 32.171C109.418 31.9714 109.336 31.7482 109.336 31.5016C109.336 31.1962 109.448 30.9496 109.671 30.7617C109.894 30.5738 110.193 30.4798 110.569 30.4798C110.792 30.4798 111.004 30.5268 111.203 30.6208C111.391 30.7147 111.562 30.838 111.714 30.9907L111.415 31.3959L111.38 31.3607C111.38 31.3489 111.374 31.3313 111.362 31.3078C111.362 31.2726 111.35 31.2432 111.327 31.2197C111.315 31.1845 111.291 31.1551 111.256 31.1316C111.162 31.0377 111.051 30.9672 110.922 30.9202C110.804 30.885 110.663 30.8674 110.499 30.8674C110.287 30.8674 110.123 30.9261 110.005 31.0436C109.876 31.161 109.812 31.3019 109.812 31.4664C109.812 31.5956 109.835 31.7071 109.882 31.8011C109.941 31.895 110.041 31.9831 110.182 32.0653C110.323 32.1593 110.534 32.2591 110.816 32.3648C111.203 32.5293 111.474 32.6937 111.626 32.8581C111.767 33.0343 111.838 33.2515 111.838 33.5099C111.838 33.7096 111.791 33.8975 111.697 34.0737C111.591 34.2498 111.438 34.3966 111.239 34.5141C111.027 34.6315 110.775 34.6903 110.481 34.6903Z" fill="white"/>
<path d="M31.9976 87.481V77.087H32.5261V87.481H31.9976ZM33.0546 87.481V77.087H34.6401V87.481H33.0546ZM35.1686 87.481V77.087H36.2256V87.481H35.1686ZM37.8125 87.481V77.087H38.341V87.481H37.8125ZM39.9265 87.481V77.087H41.5121V87.481H39.9265ZM42.0406 87.481V77.087H43.0976V87.481H42.0406ZM43.6275 87.481V77.087H44.156V87.481H43.6275ZM44.6845 87.481V77.087H46.27V87.481H44.6845ZM47.8555 87.481V77.087H48.9125V87.481H47.8555ZM49.4424 87.481V77.087H49.9709V87.481H49.4424ZM50.4994 87.481V77.087H51.0279V87.481H50.4994ZM52.6135 87.481V77.087H53.6705V87.481H52.6135ZM55.2574 87.481V77.087H55.7859V87.481H55.2574ZM57.3714 87.481V77.087H58.4284V87.481H57.3714ZM58.9569 87.481V77.087H60.5424V87.481H58.9569ZM61.0723 87.481V77.087H62.1293V87.481H61.0723ZM63.7149 87.481V77.087H64.2434V87.481H63.7149ZM65.8289 87.481V77.087H66.3574V87.481H65.8289ZM66.8873 87.481V77.087H67.9443V87.481H66.8873ZM68.4728 87.481V77.087H69.5298V87.481H68.4728ZM70.5868 87.481V77.087H71.6438V87.481H70.5868ZM72.7022 87.481V77.087H73.7592V87.481H72.7022ZM74.2877 87.481V77.087H75.8733V87.481H74.2877ZM77.4588 87.481V77.087H77.9873V87.481H77.4588ZM78.5172 87.481V77.087H79.5742V87.481H78.5172ZM81.1597 87.481V77.087H81.6882V87.481H81.1597ZM82.2167 87.481V77.087H83.8022V87.481H82.2167ZM84.3321 87.481V77.087H84.8606V87.481H84.3321ZM85.3891 87.481V77.087H85.9177V87.481H85.3891ZM87.5032 87.481V77.087H88.5602V87.481H87.5032ZM90.1471 87.481V77.087H90.6756V87.481H90.1471ZM91.2041 87.481V77.087H92.2611V87.481H91.2041ZM93.8466 87.481V77.087H94.3751V87.481H93.8466ZM95.962 87.481V77.087H96.4905V87.481H95.962ZM98.0761 87.481V77.087H99.1331V87.481H98.0761ZM99.6616 87.481V77.087H100.19V87.481H99.6616ZM101.777 87.481V77.087H102.834V87.481H101.777ZM104.42 87.481V77.087H104.948V87.481H104.42ZM105.477 87.481V77.087H107.062V87.481H105.477ZM107.592 87.481V77.087H108.649V87.481H107.592ZM109.177 87.481V77.087H110.763V87.481H109.177ZM111.291 87.481V77.087H111.82V87.481H111.291Z" fill="white"/>
</svg>
